<?xml version="1.0" encoding="utf-8"?>
<!-- Generator: Adobe Illustrator 15.0.0, SVG Export Plug-In . SVG Version: 6.00 Build 0)  -->
<!DOCTYPE svg PUBLIC "-//W3C//DTD SVG 1.1//EN" "http://www.w3.org/Graphics/SVG/1.1/DTD/svg11.dtd">
<svg version="1.1" id="圖層_1" xmlns="http://www.w3.org/2000/svg" xmlns:xlink="http://www.w3.org/1999/xlink" x="0px" y="0px"
	 width="120px" height="120px" viewBox="0 0 120 120" enable-background="new 0 0 120 120" xml:space="preserve">
<g>
	<path fill="#FFFFFF" d="M33.466,40.131v11.707h-8.068V40.131l-6.943-15.117h8.174l2.813,6.082l2.813-6.082h8.156L33.466,40.131z"/>
	<path fill="#FFFFFF" d="M48.442,24.557c2.414,0,4.523,1.345,6.328,4.034s2.707,5.892,2.707,9.606c0,4.184-0.888,7.57-2.663,10.16
		s-4.063,3.885-6.864,3.885c-2.379,0-4.5-1.26-6.363-3.779c-1.863-2.519-2.795-6.053-2.795-10.6c0-2.215,0.398-4.342,1.195-6.381
		c0.797-2.039,1.904-3.703,3.322-4.992C44.727,25.201,46.438,24.557,48.442,24.557z M48.126,34.875c-0.516,0-0.952,0.267-1.31,0.8
		c-0.358,0.533-0.536,1.204-0.536,2.013c0,0.82,0.176,1.494,0.527,2.021s0.791,0.791,1.318,0.791c0.539,0,0.984-0.261,1.336-0.782
		c0.352-0.521,0.527-1.198,0.527-2.03c0-0.809-0.176-1.479-0.527-2.013C49.11,35.141,48.665,34.875,48.126,34.875z"/>
	<path fill="#FFFFFF" d="M70.188,25.014h8.067v9.984c0,2.895-0.062,4.992-0.185,6.293c-0.123,1.301-0.422,2.663-0.896,4.087
		c-0.474,1.424-1.121,2.643-1.941,3.656c-0.82,1.013-1.756,1.802-2.805,2.364s-2.117,0.844-3.207,0.844
		c-1.396,0-2.752-0.434-4.07-1.301c-1.317-0.867-2.353-2.03-3.103-3.489s-1.26-3.038-1.528-4.737
		c-0.27-1.699-0.405-4.248-0.405-7.646V25.014h8.069v12.428c0,1.09,0.063,1.872,0.192,2.347s0.375,0.712,0.737,0.712
		c0.435,0,0.722-0.272,0.861-0.817c0.141-0.545,0.211-1.667,0.211-3.366V25.014H70.188z"/>
	<path fill="#FFFFFF" d="M81.561,51.838V25.014h8.067c2.802,0,4.677,0.094,5.625,0.281c0.949,0.187,1.774,0.612,2.479,1.274
		c0.703,0.662,1.269,1.564,1.695,2.707c0.428,1.143,0.643,2.353,0.643,3.63c0,2.695-0.687,4.723-2.057,6.082
		c1.979,3.281,3.157,7.564,3.532,12.85h-8.385v-0.246c0-3.152-0.3-5.555-0.896-7.207c-0.598-1.652-1.441-2.479-2.531-2.479h-0.105
		v9.932H81.561z M89.77,30.534h-0.142v5.168h0.211c0.785,0,1.354-0.211,1.705-0.633c0.351-0.422,0.526-1.096,0.526-2.021
		C92.07,31.372,91.305,30.534,89.77,30.534z"/>
	<path fill="#FFFFFF" d="M37.034,95.039h-15.17V68.215h8.068v20.092h7.102V95.039z"/>
	<path fill="#FFFFFF" d="M47.968,67.758c2.414,0,4.523,1.344,6.328,4.033c1.805,2.689,2.707,5.893,2.707,9.607
		c0,4.184-0.888,7.57-2.663,10.16s-4.063,3.885-6.864,3.885c-2.379,0-4.5-1.26-6.363-3.779c-1.863-2.52-2.795-6.053-2.795-10.6
		c0-2.215,0.398-4.342,1.195-6.381c0.797-2.039,1.904-3.703,3.322-4.992S45.964,67.758,47.968,67.758z M47.651,78.076
		c-0.516,0-0.952,0.266-1.31,0.799c-0.358,0.533-0.536,1.205-0.536,2.014c0,0.82,0.176,1.494,0.527,2.021s0.791,0.791,1.318,0.791
		c0.539,0,0.984-0.262,1.336-0.783s0.527-1.197,0.527-2.029c0-0.809-0.176-1.479-0.527-2.014S48.19,78.076,47.651,78.076z"/>
	<path fill="#FFFFFF" d="M77.887,95.074h-0.107l-6.627,0.281c-2.59,0-4.518-0.316-5.782-0.949s-2.376-1.662-3.331-3.086
		S60.404,88.342,60,86.654c-0.404-1.688-0.606-3.428-0.606-5.221c0-4.125,0.94-7.437,2.821-9.933s4.346-3.744,7.393-3.744
		c1.418,0,2.908,0.318,4.474,0.957c1.565,0.64,2.991,1.526,4.28,2.664l-3.92,8.067c-1.547-1.147-3-1.723-4.359-1.723
		c-0.926,0-1.673,0.334-2.241,1.002c-0.567,0.668-0.853,1.547-0.853,2.637c0,2.298,0.885,3.445,2.654,3.445h0.192v-4.201h8.052
		V95.074L77.887,95.074z"/>
	<path fill="#FFFFFF" d="M89.805,67.758c2.413,0,4.522,1.344,6.327,4.033c1.806,2.689,2.707,5.893,2.707,9.607
		c0,4.184-0.888,7.57-2.663,10.16s-4.063,3.885-6.863,3.885c-2.379,0-4.5-1.26-6.363-3.779s-2.795-6.053-2.795-10.6
		c0-2.215,0.398-4.342,1.195-6.381s1.903-3.703,3.321-4.992S87.8,67.758,89.805,67.758z M89.486,78.076
		c-0.516,0-0.951,0.266-1.309,0.799c-0.359,0.533-0.537,1.205-0.537,2.014c0,0.82,0.176,1.494,0.527,2.021s0.791,0.791,1.318,0.791
		c0.539,0,0.984-0.262,1.336-0.783s0.527-1.197,0.527-2.029c0-0.809-0.177-1.479-0.527-2.014
		C90.471,78.341,90.025,78.076,89.486,78.076z"/>
</g>
</svg>
