<?xml version="1.0" encoding="utf-8"?>
<!-- Generator: Adobe Illustrator 15.0.0, SVG Export Plug-In . SVG Version: 6.00 Build 0)  -->
<!DOCTYPE svg PUBLIC "-//W3C//DTD SVG 1.1//EN" "http://www.w3.org/Graphics/SVG/1.1/DTD/svg11.dtd">
<svg version="1.1" id="圖層_1" xmlns="http://www.w3.org/2000/svg" xmlns:xlink="http://www.w3.org/1999/xlink" x="0px" y="0px"
	 width="120px" height="120px" viewBox="0 0 120 120" enable-background="new 0 0 120 120" xml:space="preserve">
<g>
	<path d="M33.466,40.131v11.707h-8.068V40.131l-6.943-15.117h8.174l2.813,6.082l2.813-6.082h8.156L33.466,40.131z"/>
	<path d="M48.442,24.557c2.414,0,4.523,1.345,6.328,4.034s2.707,5.892,2.707,9.606c0,4.184-0.888,7.57-2.663,10.16
		s-4.063,3.885-6.864,3.885c-2.379,0-4.5-1.26-6.363-3.779s-2.795-6.053-2.795-10.6c0-2.215,0.398-4.342,1.195-6.381
		s1.904-3.703,3.322-4.992S46.438,24.557,48.442,24.557z M48.126,34.875c-0.516,0-0.952,0.267-1.31,0.8s-0.536,1.204-0.536,2.013
		c0,0.82,0.176,1.494,0.527,2.021s0.791,0.791,1.318,0.791c0.539,0,0.984-0.261,1.336-0.782s0.527-1.198,0.527-2.03
		c0-0.809-0.176-1.479-0.527-2.013S48.665,34.875,48.126,34.875z"/>
	<path d="M70.187,25.014h8.068v9.984c0,2.895-0.062,4.992-0.185,6.293s-0.422,2.663-0.896,4.087s-1.122,2.643-1.942,3.656
		s-1.755,1.802-2.804,2.364s-2.118,0.844-3.208,0.844c-1.395,0-2.751-0.434-4.069-1.301s-2.353-2.03-3.103-3.489
		s-1.26-3.038-1.529-4.737s-0.404-4.248-0.404-7.646V25.014h8.068v12.428c0,1.09,0.064,1.872,0.193,2.347s0.375,0.712,0.738,0.712
		c0.434,0,0.721-0.272,0.861-0.817s0.211-1.667,0.211-3.366V25.014z"/>
	<path d="M81.56,51.838V25.014h8.068c2.801,0,4.676,0.094,5.625,0.281s1.775,0.612,2.479,1.274s1.269,1.564,1.696,2.707
		s0.642,2.353,0.642,3.63c0,2.695-0.686,4.723-2.057,6.082c1.98,3.281,3.158,7.564,3.533,12.85h-8.385v-0.246
		c0-3.152-0.299-5.555-0.896-7.207s-1.441-2.479-2.531-2.479h-0.105v9.932H81.56z M89.769,30.534h-0.141v5.168h0.211
		c0.785,0,1.354-0.211,1.705-0.633s0.527-1.096,0.527-2.021C92.071,31.372,91.304,30.534,89.769,30.534z"/>
	<path d="M37.034,95.039h-15.17V68.215h8.068v20.092h7.102V95.039z"/>
	<path d="M47.968,67.758c2.414,0,4.523,1.344,6.328,4.033s2.707,5.893,2.707,9.607c0,4.184-0.888,7.57-2.663,10.16
		s-4.063,3.885-6.864,3.885c-2.379,0-4.5-1.26-6.363-3.779s-2.795-6.053-2.795-10.6c0-2.215,0.398-4.342,1.195-6.381
		s1.904-3.703,3.322-4.992S45.964,67.758,47.968,67.758z M47.651,78.076c-0.516,0-0.952,0.266-1.31,0.799s-0.536,1.205-0.536,2.014
		c0,0.82,0.176,1.494,0.527,2.021s0.791,0.791,1.318,0.791c0.539,0,0.984-0.262,1.336-0.783s0.527-1.197,0.527-2.029
		c0-0.809-0.176-1.48-0.527-2.014S48.19,78.076,47.651,78.076z"/>
	<path d="M77.886,95.074H77.78l-6.627,0.281c-2.59,0-4.518-0.316-5.783-0.949s-2.376-1.662-3.331-3.086S60.404,88.342,60,86.654
		s-0.606-3.428-0.606-5.221c0-4.125,0.94-7.436,2.821-9.932s4.345-3.744,7.392-3.744c1.418,0,2.909,0.318,4.474,0.957
		s2.991,1.527,4.28,2.664l-3.92,8.068c-1.547-1.148-3-1.723-4.359-1.723c-0.926,0-1.673,0.334-2.241,1.002s-0.853,1.547-0.853,2.637
		c0,2.297,0.885,3.445,2.654,3.445h0.193v-4.201h8.051V95.074z"/>
	<path d="M89.804,67.758c2.414,0,4.523,1.344,6.328,4.033s2.707,5.893,2.707,9.607c0,4.184-0.888,7.57-2.663,10.16
		s-4.063,3.885-6.864,3.885c-2.379,0-4.5-1.26-6.363-3.779s-2.795-6.053-2.795-10.6c0-2.215,0.398-4.342,1.195-6.381
		s1.904-3.703,3.322-4.992S87.8,67.758,89.804,67.758z M89.487,78.076c-0.516,0-0.952,0.266-1.31,0.799s-0.536,1.205-0.536,2.014
		c0,0.82,0.176,1.494,0.527,2.021s0.791,0.791,1.318,0.791c0.539,0,0.984-0.262,1.336-0.783s0.527-1.197,0.527-2.029
		c0-0.809-0.176-1.48-0.527-2.014S90.026,78.076,89.487,78.076z"/>
</g>
</svg>
