<?xml version="1.0" encoding="utf-8"?>
<!-- Generator: Adobe Illustrator 15.0.0, SVG Export Plug-In . SVG Version: 6.00 Build 0)  -->
<!DOCTYPE svg PUBLIC "-//W3C//DTD SVG 1.1//EN" "http://www.w3.org/Graphics/SVG/1.1/DTD/svg11.dtd">
<svg version="1.1" id="圖層_1" xmlns="http://www.w3.org/2000/svg" xmlns:xlink="http://www.w3.org/1999/xlink" x="0px" y="0px"
	 width="120px" height="120px" viewBox="0 0 120 120" enable-background="new 0 0 120 120" xml:space="preserve">
<path fill="#FFFFFF" d="M32.245,51.139v14.887h-1.42c-0.22,0-0.403-0.036-0.551-0.107c-0.148-0.072-0.29-0.193-0.428-0.365
	l-7.772-9.925c0.041,0.453,0.063,0.872,0.063,1.256v9.142h-2.44V51.139h1.451c0.117,0,0.218,0.005,0.304,0.016
	c0.086,0.011,0.162,0.031,0.227,0.062c0.065,0.031,0.129,0.076,0.19,0.134c0.063,0.058,0.131,0.136,0.206,0.231l7.804,9.966
	c-0.021-0.24-0.038-0.479-0.051-0.71c-0.015-0.234-0.021-0.45-0.021-0.648v-9.05h2.438V51.139z"/>
<path fill="#FFFFFF" d="M39.515,55.299c0.782,0,1.494,0.127,2.137,0.381c0.642,0.254,1.19,0.614,1.646,1.081
	c0.456,0.466,0.808,1.036,1.055,1.709c0.247,0.673,0.371,1.424,0.371,2.254c0,0.837-0.124,1.592-0.371,2.265
	c-0.247,0.674-0.599,1.246-1.055,1.72s-1.005,0.838-1.646,1.092c-0.643,0.254-1.354,0.38-2.137,0.38
	c-0.789,0-1.507-0.126-2.151-0.38c-0.646-0.254-1.196-0.618-1.653-1.092c-0.456-0.474-0.81-1.046-1.06-1.72
	c-0.251-0.672-0.376-1.427-0.376-2.265c0-0.83,0.125-1.582,0.376-2.254c0.25-0.673,0.604-1.243,1.06-1.709
	c0.457-0.467,1.008-0.827,1.653-1.081C38.008,55.426,38.726,55.299,39.515,55.299z M39.515,64.225c0.878,0,1.529-0.295,1.95-0.885
	c0.423-0.591,0.634-1.456,0.634-2.595c0-1.139-0.211-2.008-0.634-2.605c-0.421-0.597-1.072-0.896-1.95-0.896
	c-0.893,0-1.554,0.301-1.982,0.901c-0.429,0.6-0.644,1.467-0.644,2.599c0,1.132,0.215,1.995,0.644,2.589
	C37.961,63.927,38.622,64.225,39.515,64.225z"/>
<path fill="#FFFFFF" d="M54.855,66.025h-2.78V51.139h2.78V66.025z"/>
<path fill="#FFFFFF" d="M57.623,66.025V55.464h1.555c0.33,0,0.546,0.154,0.648,0.462l0.165,0.782
	c0.186-0.205,0.379-0.395,0.582-0.565c0.202-0.172,0.418-0.319,0.648-0.443c0.229-0.123,0.477-0.221,0.74-0.293
	c0.265-0.072,0.555-0.108,0.87-0.108c0.665,0,1.213,0.18,1.643,0.54c0.429,0.36,0.75,0.839,0.963,1.436
	c0.164-0.35,0.37-0.65,0.617-0.9c0.246-0.25,0.518-0.455,0.813-0.613c0.295-0.157,0.609-0.274,0.942-0.35
	c0.332-0.075,0.667-0.113,1.003-0.113c0.584,0,1.103,0.088,1.556,0.267c0.451,0.179,0.833,0.44,1.143,0.783
	c0.309,0.343,0.545,0.762,0.704,1.256c0.162,0.494,0.242,1.061,0.242,1.699v6.723h-2.542v-6.724c0-0.672-0.146-1.179-0.441-1.519
	c-0.297-0.339-0.729-0.51-1.299-0.51c-0.261,0-0.503,0.045-0.726,0.134c-0.223,0.089-0.419,0.218-0.587,0.386
	s-0.301,0.378-0.396,0.632c-0.096,0.255-0.145,0.546-0.145,0.875v6.723h-2.553v-6.721c0-0.707-0.144-1.221-0.429-1.544
	c-0.283-0.323-0.701-0.484-1.251-0.484c-0.37,0-0.715,0.091-1.033,0.273c-0.319,0.182-0.617,0.431-0.892,0.746v7.73L57.623,66.025
	L57.623,66.025z"/>
<path fill="#FFFFFF" d="M74.62,56.936c1.215-1.112,2.677-1.668,4.386-1.668c0.617,0,1.171,0.102,1.657,0.304
	c0.486,0.202,0.898,0.483,1.236,0.844c0.336,0.36,0.591,0.791,0.767,1.292c0.175,0.501,0.263,1.05,0.263,1.647v6.67h-1.152
	c-0.24,0-0.426-0.036-0.557-0.107c-0.131-0.072-0.234-0.219-0.31-0.438l-0.226-0.762c-0.27,0.24-0.529,0.452-0.783,0.633
	s-0.52,0.334-0.793,0.458c-0.274,0.123-0.567,0.218-0.881,0.283c-0.313,0.064-0.656,0.098-1.035,0.098
	c-0.444,0-0.856-0.06-1.233-0.18c-0.378-0.121-0.704-0.301-0.979-0.542c-0.273-0.24-0.486-0.539-0.639-0.896
	c-0.15-0.355-0.227-0.771-0.227-1.244c0-0.269,0.045-0.534,0.135-0.799c0.089-0.264,0.234-0.516,0.438-0.757
	c0.203-0.24,0.465-0.466,0.787-0.679s0.719-0.398,1.188-0.556c0.471-0.158,1.019-0.286,1.644-0.386s1.338-0.16,2.141-0.18v-0.618
	c0-0.706-0.15-1.23-0.452-1.57c-0.302-0.339-0.737-0.51-1.308-0.51c-0.412,0-0.754,0.049-1.024,0.144
	c-0.271,0.097-0.511,0.205-0.716,0.324c-0.205,0.121-0.393,0.229-0.562,0.324c-0.168,0.097-0.354,0.145-0.561,0.145
	c-0.179,0-0.33-0.046-0.454-0.139c-0.123-0.093-0.223-0.201-0.299-0.325L74.62,56.936z M80.446,61.517
	c-0.733,0.034-1.353,0.098-1.854,0.19s-0.902,0.211-1.203,0.354c-0.304,0.145-0.52,0.313-0.648,0.504
	c-0.131,0.192-0.196,0.401-0.196,0.628c0,0.445,0.133,0.766,0.396,0.958c0.265,0.192,0.609,0.288,1.035,0.288
	c0.521,0,0.974-0.095,1.354-0.283c0.381-0.188,0.753-0.475,1.116-0.858V61.517z"/>
<path fill="#FFFFFF" d="M94.583,55.824v0.947c0,0.303-0.182,0.488-0.546,0.557l-0.946,0.175c0.145,0.364,0.217,0.762,0.217,1.194
	c0,0.522-0.104,0.994-0.314,1.416c-0.209,0.421-0.499,0.781-0.869,1.076c-0.371,0.295-0.809,0.523-1.313,0.686
	c-0.504,0.161-1.05,0.241-1.633,0.241c-0.205,0-0.404-0.011-0.597-0.03c-0.192-0.021-0.381-0.049-0.565-0.083
	c-0.33,0.199-0.494,0.422-0.494,0.669c0,0.213,0.099,0.369,0.293,0.468c0.194,0.1,0.455,0.17,0.777,0.211s0.689,0.067,1.102,0.077
	c0.412,0.011,0.834,0.033,1.267,0.067s0.854,0.095,1.267,0.18c0.412,0.086,0.778,0.221,1.103,0.407
	c0.321,0.185,0.581,0.438,0.776,0.757c0.195,0.318,0.293,0.729,0.293,1.229c0,0.468-0.113,0.92-0.344,1.359
	c-0.229,0.438-0.563,0.83-0.998,1.173c-0.438,0.344-0.973,0.62-1.606,0.829s-1.357,0.313-2.167,0.313c-0.797,0-1.49-0.076-2.08-0.23
	s-1.08-0.36-1.473-0.618c-0.392-0.258-0.684-0.554-0.875-0.891c-0.191-0.336-0.289-0.687-0.289-1.05
	c0-0.494,0.149-0.908,0.449-1.241c0.299-0.333,0.707-0.599,1.229-0.798c-0.281-0.145-0.505-0.336-0.67-0.576
	c-0.164-0.241-0.247-0.557-0.247-0.948c0-0.157,0.029-0.321,0.088-0.488c0.059-0.168,0.145-0.335,0.258-0.5
	c0.112-0.165,0.256-0.32,0.428-0.468s0.373-0.28,0.606-0.396c-0.535-0.288-0.956-0.673-1.261-1.153
	c-0.307-0.48-0.459-1.043-0.459-1.688c0-0.522,0.104-0.994,0.313-1.416c0.209-0.421,0.501-0.783,0.875-1.081
	c0.375-0.298,0.817-0.527,1.328-0.685c0.513-0.157,1.069-0.237,1.673-0.237c0.453,0,0.879,0.047,1.277,0.139
	c0.396,0.093,0.762,0.229,1.091,0.407h3.036V55.824z M92.05,66.5c0-0.206-0.061-0.374-0.185-0.504
	c-0.124-0.131-0.292-0.231-0.505-0.304c-0.213-0.071-0.463-0.126-0.746-0.16c-0.285-0.033-0.588-0.06-0.906-0.076
	c-0.318-0.018-0.648-0.033-0.988-0.046c-0.34-0.015-0.671-0.041-0.992-0.083c-0.281,0.157-0.511,0.343-0.686,0.556
	c-0.176,0.213-0.264,0.46-0.264,0.742c0,0.185,0.047,0.357,0.14,0.52c0.095,0.162,0.241,0.301,0.442,0.417
	c0.203,0.117,0.466,0.208,0.787,0.273c0.322,0.064,0.718,0.098,1.185,0.098c0.476,0,0.882-0.036,1.226-0.108
	c0.344-0.071,0.627-0.172,0.85-0.298c0.224-0.127,0.387-0.277,0.488-0.453C91.999,66.896,92.05,66.706,92.05,66.5z M89.178,60.487
	c0.316,0,0.591-0.043,0.824-0.129c0.233-0.085,0.427-0.204,0.581-0.354c0.154-0.152,0.271-0.333,0.352-0.546
	c0.078-0.213,0.117-0.446,0.117-0.7c0-0.522-0.156-0.935-0.469-1.241c-0.313-0.305-0.781-0.458-1.405-0.458
	s-1.093,0.153-1.405,0.458c-0.313,0.306-0.467,0.719-0.467,1.241c0,0.248,0.038,0.477,0.117,0.689
	c0.079,0.213,0.196,0.396,0.35,0.551c0.154,0.155,0.352,0.275,0.588,0.36C88.597,60.444,88.869,60.487,89.178,60.487z"/>
<path fill="#FFFFFF" d="M97.96,61.063c0.041,0.542,0.139,1.011,0.288,1.405c0.151,0.396,0.351,0.721,0.599,0.979
	c0.246,0.259,0.539,0.449,0.879,0.576s0.715,0.19,1.127,0.19s0.768-0.048,1.066-0.145c0.298-0.096,0.559-0.201,0.781-0.318
	c0.224-0.116,0.419-0.224,0.588-0.319c0.168-0.095,0.33-0.144,0.488-0.144c0.213,0,0.371,0.08,0.474,0.236l0.729,0.928
	c-0.28,0.328-0.596,0.604-0.945,0.828c-0.352,0.224-0.717,0.401-1.098,0.535s-0.769,0.229-1.162,0.283
	c-0.396,0.054-0.777,0.082-1.148,0.082c-0.734,0-1.417-0.122-2.049-0.365c-0.633-0.243-1.182-0.604-1.646-1.081
	c-0.467-0.477-0.834-1.066-1.103-1.771c-0.267-0.703-0.4-1.519-0.4-2.445c0-0.72,0.116-1.397,0.351-2.033
	c0.233-0.635,0.568-1.187,1.004-1.657c0.436-0.47,0.968-0.843,1.596-1.118c0.628-0.274,1.337-0.411,2.126-0.411
	c0.665,0,1.28,0.106,1.843,0.319c0.563,0.213,1.047,0.524,1.451,0.932c0.405,0.408,0.723,0.909,0.953,1.503
	c0.229,0.594,0.344,1.271,0.344,2.033c0,0.385-0.041,0.644-0.123,0.776c-0.082,0.134-0.24,0.2-0.474,0.2H97.96z M102.81,59.53
	c0-0.33-0.047-0.64-0.14-0.932s-0.231-0.547-0.417-0.767c-0.186-0.22-0.421-0.393-0.705-0.521c-0.285-0.126-0.615-0.19-0.994-0.19
	c-0.732,0-1.312,0.209-1.734,0.627c-0.422,0.419-0.69,1.013-0.809,1.781h4.799V59.53z"/>
</svg>
